<?xml version="1.0" encoding="utf-8"?>
<!-- Generator: Adobe Illustrator 22.0.1, SVG Export Plug-In . SVG Version: 6.00 Build 0)  -->
<svg version="1.1" id="Layer_1" xmlns="http://www.w3.org/2000/svg" xmlns:xlink="http://www.w3.org/1999/xlink" x="0px" y="0px"
	 width="87.1px" height="37.6px" viewBox="0 0 87.1 37.6" style="enable-background:new 0 0 87.1 37.6;" xml:space="preserve">
<style type="text/css">
	.st0{fill:#C44536;}
</style>
<path class="st0" d="M6.6,0v2.4h0.5l0.5,2.9C24,6.2,28.4,13.4,28.4,20c0,7.1-2.6,8.6-11.2,12.3v5.3h9.4c0,0,4.5-4,12.2-4
	s11.7,4,11.7,4h9.7v-5.3c-7.8-3.3-11-5.3-11-10.3c0-4.9,4-6.4,7-6.4c18.4,0,24.3-11.4,24.3-12.8c0-0.4-0.2-0.5-0.4-0.5
	c0,0-6.2,0.3-11.3,0.4c-5,0.1-11.7,0-11.7,0V2.2c0-0.3-0.2-0.5-0.4-0.5h-2.4c-1.1,0-2-0.2-2-0.9V0H6.6z"/>
</svg>
