<svg id="Layer_1" xmlns="http://www.w3.org/2000/svg" width="87.1" height="37.6" viewBox="0 0 87.1 37.6"><style>.st0{fill:#D32027;} .st1{fill:#FFFFFF;}</style><path class="st0" d="M49.7 33.6c1.2 1.4 3.2.8 3.2.8-1.4-2.3-1.5-5.2-1.5-5.2.5 2.4 1.7 4.3 1.7 4.3 1.3 1.2 6 .3 6 .3-3-2.6-4.4-5.9-4.4-5.9 1.4 2.1 4.3 3.7 4.3 3.7 3.7.8 8.6-1.9 8.6-1.9-4.7-2.3-8.3-6.5-8.3-6.5 5 3.5 9.8 4 9.8 4 5.1-.4 8.8-5.4 8.8-5.4-9.9-.7-14.1-2.6-14.1-2.6 2.9.9 13.5.3 13.5.3 4-1.7 5.9-7.3 5.9-7.3-7.4 1.5-15.9 1-15.9 1 7.4-.2 14.8-3.3 14.8-3.3 4-3 5-10 5-10-10.3 7-25.8 9.9-29.3 10.5-.4.1-.8.4-.9.8-1.2 5.4-4.8 7.7-7.9 8.6-3.4.8-2.6-5.5-1.4-5.9 1.4-.3 2.1.2 3.4.9-.6-3.3-3.7-3.6-3.7-3.6-.9-1.6-3.5-2.7-5.4-2.6-1.8.1-5.3-1.3-6-2.2.9 2.3 3.1 3.3 5.2 4.8 1.8 6.2-.2 9.2-2.6 8.6-3.2-.9-6.9-3.1-8.1-8.6-.1-.4-.4-.8-.9-.8C25.7 9.8 10.2 6.9 0 0c0 0 1 7.1 5 10 0 0 5.9 3.2 13.4 3.3 0 0-7.1.5-14.5-1 0 0 2 5.7 5.9 7.3 0 0 10.3.6 13.2-.3 0 0-3.9 1.9-13.8 2.6 0 0 3.8 5 8.8 5.4 0 0 4.8-.6 9.8-4 0 0-3.5 4.2-8.3 6.5 0 0 4.9 2.7 8.6 1.9 0 0 2.8-1.7 4.3-3.7 0 0-1.4 3.3-4.4 5.9 0 0 4.7.9 6-.3 0 0 1.3-1.9 1.7-4.3 0 0-.1 2.9-1.5 5.2 0 0 2.1.6 3.2-.8 0 0 1.6 3.2 5.7 3.7 3.8-.1 6.6-3.8 6.6-3.8zM36.9 38"/><path class="st1" d="M43.1 37.7c-3.4 0-5.1-2.1-5.7-3.4-.3-.8-.3-2.3.2-3.3.7-1.2 2.3-3.7.4-4.9 1.1.3 1.4 1.2 1.3 2.2-.2 1.3-1 2.6-.3 3.8.6 1.1 2.2 1.2 2.6-.2.3-1.1-.5-2.4-1.5-2.4.8-.3 1.7-.1 2.4.4.6.4 1.2 1.2 1.1 2 .5-1.5-1.5-2.4-2.3-3.1-1.1-.9-1.7-2.5-1.5-3.4.2-1.3.8-2.3 1.9-2.9-.4.5-.7 1.6-.2 2.3-.2-2.6 2.1-4.3 4-4.6-2.2.9-3.2 4.2-1.6 6.4.7.9 2 1.7 2.8 2.4 2.2 2.1 1.4 4.1.6 5.2 2.3-2 .5-4.7-.4-5.9-.5-.6-1-1.2-.9-2.1.1-.7.5-1.4 1.1-1.6-1.3.8.3 2.6.8 3.2 1.1 1.2 1.9 2 2.1 3.7.3 2.2-1.4 6-6.3 6.1h-.6zM44.2 10.8c-.5-.1-1.1-.9-1.1-.9s.7 0 1.3.2c.6.2 1.1.9 1.1.9s-.8-.1-1.3-.2z"/></svg>