<svg id="Layer_1" xmlns="http://www.w3.org/2000/svg" width="395.5" height="294.2" viewBox="0 0 395.5 294.2"><style>.st0{fill:#FFFFFF;} .st1{fill:#D32027;stroke:#FFFFFF;stroke-width:2;stroke-miterlimit:10;} .st2{fill:#D32027;} .st3{fill:none;stroke:#D32027;stroke-width:1.2776;stroke-miterlimit:10;} .st4{fill:#D32027;stroke:#FFFFFF;stroke-width:1.2776;stroke-miterlimit:10;}</style><path class="st0" d="M181.9 256.9c-8.3 3.8-23.7 2.8-23.7 2.8s15.2-2.6 20.9-5.1c3.7-1.6 8.3-5.4 9.3-6.4-.7-1.3-3.8-7.1-5.6-10.7-2-4.1-9.1-12.9-9.1-12.9s10.3 8.9 15.2 16.9c1.5 2.4 2.7 4.2 3.7 5.6-1.3-2.2-2.7-4.9-3-6.6-.6-3.4 1.7-9.6-4.1-15.7-5.2-5.4-16-6.5-23.3-11.2 0 0 3.9 8 4.7 13 .8 4.8.6 11.3 4.9 14 3.7 2.2 8.7 4.6 13.2 6.5-10.6-3.2-17.4-1.9-20.8-.6-4.2 1.6-8.8 8.8-13.3 12.4-3.9 3.1-11.5 6.9-11.5 6.9 12.2 2 17.1 7.6 27.3 5.2 11-2.5 11.4-8.8 15.9-13.3 1.3-1.4 3.3-2.6 5.2-3.6-1.6.8-3.6 1.7-5.9 2.8z"/><path class="st0" d="M148.5 241.3c-8.6 1.5-22.4-3.3-22.4-3.3s14.6 1.4 20.5.5c3.8-.6 8.9-3 10.1-3.5-.3-1.4-1.8-7.4-2.5-11.2-.8-4.3-5.2-14.1-5.2-14.1s7.3 10.7 9.8 19.2c.8 2.5 1.4 4.5 2 6.1-.7-2.4-1.3-5.2-1.2-6.8.3-3.3 3.9-8.4.1-15.4-3.5-6.3-13.1-9.9-18.6-16 0 0 1.6 8.3 1.2 13-.4 4.6-2.2 10.5 1.1 14 2.8 2.9 6.9 6.3 10.5 9.2-8.9-5.5-15.5-6-18.9-5.6-4.2.5-10.2 6-15.2 8.1-4.3 1.9-12.2 3.5-12.2 3.5 10.7 4.8 13.8 11.1 23.7 11.5 10.7.4 12.6-5.3 17.8-8.3 1.6-.9 3.6-1.6 5.6-2-1.6.4-3.7.7-6.2 1.1z"/><path class="st0" d="M121.5 219.4c-8.2-.7-19.8-8.5-19.8-8.5s13 4.9 18.7 5.5c3.6.4 8.9-.5 10.2-.8 0-1.4.2-7.3.5-10.9.3-4.1-1.3-14.2-1.3-14.2s4 11.7 4.3 20.1c.1 2.5.2 4.5.3 6.1 0-2.3.1-5 .6-6.5 1.1-2.9 5.7-6.8 3.9-14.1-1.6-6.6-9.6-12.3-13.1-19.3 0 0-.6 8-2.1 12.3-1.5 4.1-4.6 9.1-2.4 13.1 1.9 3.4 4.8 7.5 7.4 11-6.8-7.3-12.7-9.3-16-9.8-4-.6-10.9 2.9-16 3.7-4.5.7-12.1.2-12.1.2 8.7 7.1 9.9 13.6 19 16.4 9.7 3 12.9-1.7 18.4-3.3 1.7-.5 3.7-.5 5.7-.4-1.8-.2-3.8-.4-6.2-.6z"/><path class="st0" d="M101.8 193c-7.4-2.7-16.1-12.7-16.1-12.7s10.8 7.7 15.8 9.6c3.2 1.3 8.3 1.7 9.5 1.8.4-1.2 2-6.6 3.1-9.9 1.3-3.7 2.3-13.3 2.3-13.3s.8 11.7-1 19.5c-.5 2.3-.9 4.2-1.2 5.6.6-2.1 1.3-4.6 2.2-5.8 1.7-2.4 6.9-4.8 7-12 .1-6.5-5.8-13.6-7.3-20.9 0 0-2.5 7.2-5 10.7-2.4 3.4-6.5 7.2-5.5 11.5.9 3.6 2.5 8.1 4.1 11.9-4.5-8.3-9.4-11.7-12.2-13-3.5-1.5-10.7 0-15.6-.5-4.3-.5-11.2-2.8-11.2-2.8 6.2 8.6 5.8 14.9 13.4 19.7 8.2 5.1 12.2 1.6 17.7 1.5 1.6 0 3.5.4 5.3 1-1.4-.4-3.1-1.1-5.3-1.9z"/><path class="st0" d="M89.8 164.3c-6.1-4.3-11.6-15.6-11.6-15.6s8 9.7 12.1 12.7c2.7 2 7.2 3.6 8.3 4 .6-1.1 3.4-5.6 5.3-8.3 2.1-3.1 5.4-11.7 5.4-11.7s-2.1 10.9-5.7 17.6c-1.1 2-1.9 3.6-2.5 4.9 1-1.8 2.3-3.9 3.4-4.8 2.1-1.8 7.5-2.7 9.4-9.3 1.7-5.9-1.9-13.9-1.6-21 0 0-4.1 6-7.2 8.6-3 2.5-7.7 5-7.8 9.2-.1 3.5.3 8 .8 11.9-2-8.8-5.7-13-8.1-14.9-2.8-2.3-9.8-2.6-14.2-4.3-3.8-1.5-9.6-5.3-9.6-5.3 3.6 9.4 1.6 15.1 7.4 21.4 6.2 6.7 10.8 4.5 15.9 5.8 1.5.4 3.1 1.2 4.6 2.2-1.1-.8-2.6-1.8-4.3-3.1z"/><path class="st0" d="M85.2 135.3c-4.5-5.4-6.8-17.2-6.8-17.2s5 10.8 8 14.6c2 2.4 5.7 5.1 6.6 5.7.9-.8 4.5-4.3 6.9-6.3 2.7-2.3 7.8-9.4 7.8-9.4s-4.6 9.5-9.6 14.8c-1.5 1.6-2.6 2.8-3.5 3.9 1.4-1.4 3.1-3 4.3-3.6 2.4-1.1 7.5-.6 10.9-6.2 3-5 1.6-13.2 3.7-19.7 0 0-5.2 4.5-8.7 6.1-3.4 1.6-8.3 2.7-9.4 6.5-.9 3.2-1.7 7.4-2.2 11.1.3-8.5-2.1-13.4-3.7-15.7-2.1-2.8-8.4-4.8-11.9-7.4-3.1-2.3-7.5-7.2-7.5-7.2 1 9.5-2.2 14.3 1.6 21.4 4.1 7.7 8.9 6.8 13.1 9.2 1.3.7 2.6 1.9 3.7 3.2-.9-.9-2-2.2-3.3-3.8z"/><path class="st0" d="M87.5 107.8c-2.8-6.1-2.1-17.4-2.1-17.4s1.9 11.2 3.7 15.4c1.2 2.7 4 6.1 4.7 6.9 1-.5 5.2-2.8 7.9-4.1 3-1.5 9.5-6.7 9.5-6.7s-6.6 7.6-12.4 11.2c-1.7 1.1-3.1 2-4.1 2.7 1.6-1 3.6-2 4.9-2.2 2.5-.5 7.1 1.3 11.5-3 4-3.9 4.7-11.7 8.2-17.1 0 0-5.9 2.9-9.5 3.5-3.5.6-8.3.4-10.3 3.6-1.6 2.7-3.4 6.4-4.8 9.7 2.4-7.8 1.4-12.8.4-15.3-1.2-3.1-6.5-6.5-9.1-9.8-2.3-2.9-5.1-8.4-5.1-8.4-1.5 9-5.6 12.6-3.8 20 1.9 8.1 6.5 8.4 9.8 11.7 1 1 1.9 2.4 2.6 3.8-.5-1.3-1.2-2.8-2-4.5z"/><path class="st0" d="M95.9 83.3c-1.1-6.3 2.4-16.5 2.4-16.5s-1 10.7-.4 15c.4 2.8 2.2 6.6 2.6 7.5 1-.2 5.5-1.3 8.2-1.8 3.1-.6 10.3-3.8 10.3-3.8s-7.9 5.4-14.1 7.2c-1.8.6-3.3 1-4.5 1.5 1.7-.5 3.8-.9 5-.8 2.4.2 6.2 2.9 11.3.1 4.6-2.5 7.2-9.6 11.8-13.7 0 0-6.1 1.2-9.6.9-3.4-.3-7.8-1.6-10.3.8-2.2 2.1-4.7 5.1-6.7 7.7 4.1-6.6 4.4-11.4 4.1-13.9-.3-3.1-4.4-7.5-6-11.2-1.4-3.2-2.6-9-2.6-9-3.6 7.9-8.2 10.2-8.4 17.5-.3 7.8 3.9 9.3 6.1 13.1.7 1.1 1.1 2.6 1.5 4.1-.1-1.4-.4-2.9-.7-4.7z"/><path class="st0" d="M109.1 63c.5-6 6.3-14.6 6.3-14.6s-3.6 9.6-4 13.7c-.3 2.7.4 6.6.6 7.5 1 0 5.3.2 8 .3 3 .2 10.4-.9 10.4-.9s-8.6 3-14.7 3.2c-1.8.1-3.3.1-4.4.2 1.7 0 3.7.1 4.8.5 2.2.8 5 4.2 10.4 2.8 4.9-1.2 9-7 14.2-9.7 0 0-5.9-.4-9-1.6-3-1.1-6.7-3.4-9.7-1.8-2.5 1.4-5.5 3.5-8.1 5.4 5.3-5 6.9-9.4 7.2-11.7.4-2.9-2.2-8-2.7-11.7-.5-3.3-.2-8.9-.2-8.9-5.2 6.4-10 7.3-12 13.9-2.2 7.1 1.3 9.5 2.4 13.5.3 1.2.4 2.7.3 4.2-.1-1.1 0-2.5.2-4.3z"/><path class="st0" d="M125.7 47.9c2-5.4 9.3-11.8 9.3-11.8s-5.6 7.9-7.1 11.6c-.9 2.4-1.3 6.1-1.3 7 .9.3 4.9 1.5 7.3 2.3 2.7.9 9.8 1.7 9.8 1.7s-8.6.6-14.3-.7c-1.7-.4-3.1-.7-4.1-.9 1.6.4 3.4 1 4.3 1.6 1.8 1.2 3.5 5.1 8.8 5.2 4.8.1 10-4.2 15.4-5.4 0 0-5.3-1.8-7.9-3.7-2.5-1.8-5.3-4.8-8.4-4-2.6.7-5.9 1.9-8.8 3 6.1-3.3 8.6-6.9 9.5-9 1.1-2.6 0-7.9.4-11.5.3-3.1 2-8.2 2-8.2-6.3 4.6-11 4.2-14.5 9.8-3.8 6-1.2 9-1.1 13 0 1.2-.3 2.6-.7 3.9.3-1 .8-2.3 1.4-3.9z"/><path class="st0" d="M142.7 47.7c.8-.5 4.1-2.9 6.1-4.5 2.3-1.8 8.7-4.7 8.7-4.7s-8.3 2.1-13.3 5.2c-1.5.9-2.7 1.6-3.6 2.1 1.4-.9 2.6-2.5 3.3-3.4 1.3-1.7 2-5.4 7-7.2 4.5-1.6 10.8.8 16.3.2 0 0-4.2 3.2-6.5 5.6-2.1 2.2-3.5 6-6.5 6.8-3.4 1.1-6.3-.5-11.5-.1zm70.1 209.2c8.3 3.8 23.7 2.8 23.7 2.8s-15.2-2.6-20.9-5.1c-3.7-1.6-8.3-5.4-9.3-6.4.7-1.3 3.8-7.1 5.6-10.7 2-4.1 9.1-12.9 9.1-12.9s-10.3 8.9-15.2 16.9c-1.5 2.4-2.7 4.2-3.7 5.6 1.3-2.2 2.7-4.9 3-6.6.6-3.4-1.7-9.6 4.1-15.7 5.2-5.4 16-6.5 23.3-11.2 0 0-3.9 8-4.7 13-.8 4.8-.6 11.3-5 14-3.7 2.2-8.7 4.6-13.2 6.5 10.6-3.2 17.4-1.9 20.8-.6 4.2 1.6 8.8 8.8 13.3 12.4 3.9 3.1 11.5 6.9 11.5 6.9-12.2 2-17.1 7.6-27.3 5.2-11-2.5-11.4-8.8-15.9-13.3-1.3-1.4-3.2-2.6-5.2-3.6 1.6.8 3.7 1.7 6 2.8z"/><path class="st0" d="M246.2 241.3c8.6 1.5 22.4-3.3 22.4-3.3s-14.6 1.4-20.5.5c-3.8-.6-8.9-3-10.1-3.5.3-1.4 1.8-7.4 2.5-11.2.8-4.3 5.2-14.1 5.2-14.1s-7.3 10.7-9.8 19.2c-.8 2.5-1.4 4.5-2 6.1.7-2.4 1.3-5.2 1.2-6.8-.3-3.3-3.9-8.4-.1-15.4 3.5-6.3 13.1-9.9 18.6-16 0 0-1.6 8.3-1.2 13 .4 4.6 2.2 10.5-1.1 14-2.8 2.9-6.9 6.3-10.5 9.2 8.9-5.5 15.5-6 18.9-5.6 4.2.5 10.2 6 15.2 8.1 4.3 1.9 12.2 3.5 12.2 3.5-10.7 4.8-13.8 11.1-23.7 11.5-10.7.4-12.6-5.3-17.8-8.3-1.6-.9-3.6-1.6-5.6-2 1.6.4 3.7.7 6.2 1.1z"/><path class="st0" d="M273.1 219.4c8.2-.7 19.8-8.5 19.8-8.5s-13 4.9-18.7 5.5c-3.6.4-8.9-.5-10.2-.8 0-1.4-.2-7.3-.5-10.9-.3-4.1 1.3-14.2 1.3-14.2s-4 11.7-4.3 20.1c-.1 2.5-.2 4.5-.3 6.1 0-2.3-.1-5-.6-6.5-1.1-2.9-5.7-6.8-3.9-14.1 1.6-6.6 9.6-12.3 13.1-19.3 0 0 .6 8 2.1 12.3 1.5 4.1 4.6 9.1 2.4 13.1-1.9 3.4-4.8 7.5-7.4 11 6.8-7.3 12.7-9.3 16-9.8 4-.6 10.9 2.9 16 3.7 4.5.7 12.1.2 12.1.2-8.7 7.1-9.9 13.6-19 16.4-9.7 3-12.9-1.7-18.4-3.3-1.7-.5-3.7-.5-5.7-.4 1.9-.2 3.9-.4 6.2-.6z"/><path class="st0" d="M292.8 193c7.4-2.7 16.1-12.7 16.1-12.7s-10.8 7.7-15.8 9.6c-3.2 1.3-8.3 1.7-9.5 1.8-.4-1.2-2-6.6-3.1-9.9-1.3-3.7-2.3-13.3-2.3-13.3s-.8 11.7 1 19.5c.5 2.3.9 4.2 1.2 5.6-.6-2.1-1.3-4.6-2.2-5.8-1.7-2.4-6.9-4.8-7-12-.1-6.5 5.8-13.6 7.3-20.9 0 0 2.5 7.2 5 10.7 2.4 3.4 6.5 7.2 5.5 11.5-.9 3.6-2.5 8.1-4.1 11.9 4.5-8.3 9.4-11.7 12.2-13 3.5-1.5 10.7 0 15.6-.5 4.3-.5 11.2-2.8 11.2-2.8-6.2 8.6-5.8 14.9-13.4 19.7-8.2 5.1-12.2 1.6-17.7 1.5-1.6 0-3.5.4-5.3 1 1.5-.4 3.2-1.1 5.3-1.9z"/><path class="st0" d="M304.9 164.3c6.1-4.3 11.6-15.6 11.6-15.6s-8 9.7-12.1 12.7c-2.7 2-7.2 3.6-8.3 4-.6-1.1-3.4-5.6-5.3-8.3-2.1-3.1-5.4-11.7-5.4-11.7s2.1 10.9 5.7 17.6c1.1 2 1.9 3.6 2.5 4.9-1-1.8-2.3-3.9-3.4-4.8-2.1-1.8-7.5-2.7-9.4-9.3-1.7-5.9 1.9-13.9 1.6-21 0 0 4.1 6 7.2 8.6 3 2.5 7.7 5 7.8 9.2.1 3.5-.3 8-.8 11.9 2.1-8.8 5.7-13 8.1-14.9 2.8-2.3 9.8-2.6 14.2-4.3 3.8-1.5 9.6-5.3 9.6-5.3-3.6 9.4-1.6 15.1-7.4 21.4-6.2 6.7-10.8 4.5-15.9 5.8-1.5.4-3.1 1.2-4.6 2.2 1.1-.8 2.6-1.8 4.3-3.1z"/><path class="st0" d="M309.5 135.3c4.5-5.4 6.8-17.2 6.8-17.2s-5 10.8-8 14.6c-2 2.4-5.7 5.1-6.6 5.7-.8-.8-4.5-4.3-6.9-6.3-2.7-2.3-7.8-9.4-7.8-9.4s4.6 9.5 9.6 14.8c1.5 1.6 2.6 2.8 3.5 3.9-1.4-1.4-3.1-3-4.3-3.6-2.4-1.1-7.5-.6-10.9-6.2-3-5-1.6-13.2-3.7-19.7 0 0 5.2 4.5 8.7 6.1 3.4 1.6 8.3 2.7 9.4 6.5.9 3.2 1.7 7.4 2.2 11.1-.3-8.5 2.1-13.4 3.7-15.7 2.1-2.8 8.4-4.8 11.9-7.4 3.1-2.3 7.5-7.2 7.5-7.2-1 9.5 2.2 14.3-1.6 21.4-4.1 7.7-8.8 6.8-13.1 9.2-1.3.7-2.6 1.9-3.7 3.2.9-.9 2-2.2 3.3-3.8z"/><path class="st0" d="M307.2 107.8c2.8-6.1 2.1-17.4 2.1-17.4s-1.9 11.2-3.7 15.4c-1.2 2.7-4 6.1-4.7 6.9-1-.5-5.2-2.8-7.9-4.1-3-1.5-9.5-6.7-9.5-6.7s6.6 7.6 12.4 11.2c1.7 1.1 3.1 2 4.1 2.7-1.6-1-3.6-2-4.9-2.2-2.5-.5-7.1 1.3-11.5-3-4-3.9-4.8-11.7-8.2-17.1 0 0 5.9 2.9 9.5 3.5 3.5.6 8.3.4 10.3 3.6 1.6 2.7 3.4 6.4 4.8 9.7-2.4-7.8-1.4-12.8-.4-15.3 1.2-3.1 6.5-6.5 9.1-9.8 2.3-2.9 5.1-8.4 5.1-8.4 1.5 9 5.6 12.6 3.8 20-1.9 8.1-6.5 8.4-9.8 11.7-1 1-1.9 2.4-2.6 3.8.5-1.3 1.1-2.8 2-4.5z"/><path class="st0" d="M298.8 83.3c1.1-6.3-2.4-16.5-2.4-16.5s1 10.7.4 15c-.4 2.8-2.2 6.6-2.6 7.5-1-.2-5.5-1.3-8.2-1.8-3.1-.6-10.3-3.8-10.3-3.8s7.9 5.4 14.1 7.2c1.8.6 3.3 1 4.5 1.5-1.7-.5-3.8-.9-5-.8-2.4.2-6.2 2.9-11.3.1-4.6-2.5-7.2-9.6-11.8-13.7 0 0 6.1 1.2 9.6.9 3.4-.3 7.8-1.6 10.3.8 2.2 2.1 4.7 5.1 6.7 7.7-4.1-6.6-4.4-11.4-4.1-13.9.3-3.1 4.4-7.5 6-11.2 1.4-3.2 2.6-9 2.6-9 3.6 7.9 8.2 10.2 8.4 17.5.3 7.8-3.9 9.3-6.1 13.1-.7 1.1-1.1 2.6-1.5 4.1.1-1.4.4-2.9.7-4.7z"/><path class="st0" d="M285.6 63c-.5-6-6.3-14.6-6.3-14.6s3.6 9.6 4 13.7c.3 2.7-.4 6.6-.6 7.5-1 0-5.3.2-8 .3-3 .2-10.4-.9-10.4-.9s8.6 3 14.7 3.2c1.8.1 3.3.1 4.4.2-1.7 0-3.7.1-4.8.5-2.2.8-5 4.2-10.4 2.8-4.9-1.2-9-7-14.2-9.7 0 0 5.9-.4 9-1.6 3-1.1 6.7-3.4 9.7-1.8 2.5 1.4 5.5 3.5 8.1 5.4-5.3-5-6.9-9.4-7.2-11.7-.5-2.9 2.2-8 2.7-11.7.5-3.3.2-8.9.2-8.9 5.2 6.4 10 7.3 12 13.9 2.2 7.1-1.3 9.5-2.4 13.5-.3 1.2-.4 2.7-.3 4.2.1-1.1-.1-2.5-.2-4.3z"/><path class="st0" d="M269 47.9c-2-5.4-9.3-11.8-9.3-11.8s5.6 7.9 7.1 11.6c.9 2.4 1.3 6.1 1.3 7-.9.3-4.9 1.5-7.3 2.3-2.7.9-9.8 1.7-9.8 1.7s8.6.6 14.3-.7c1.7-.4 3.1-.7 4.1-.9-1.6.4-3.4 1-4.3 1.6-1.8 1.2-3.5 5.1-8.8 5.2-4.8.1-10-4.2-15.4-5.4 0 0 5.3-1.8 7.9-3.7 2.5-1.8 5.3-4.8 8.4-4 2.6.7 5.9 1.9 8.8 3-6.1-3.3-8.6-6.9-9.5-9-1.1-2.6 0-7.9-.4-11.5-.3-3.1-2-8.2-2-8.2 6.3 4.6 11 4.2 14.5 9.8 3.8 6 1.2 9 1.1 13 0 1.2.3 2.6.7 3.9-.3-1-.8-2.3-1.4-3.9z"/><path class="st0" d="M252 47.7c-.8-.5-4.1-2.9-6.1-4.5-2.3-1.8-8.7-4.7-8.7-4.7s8.3 2.1 13.3 5.2c1.5.9 2.7 1.6 3.6 2.1-1.4-.9-2.6-2.5-3.3-3.4-1.3-1.7-2-5.4-7-7.2-4.5-1.6-10.8.8-16.3.2 0 0 4.2 3.2 6.5 5.6 2.1 2.2 3.5 6 6.5 6.8 3.4 1.1 6.3-.5 11.5-.1zM198.8 256c-.2 3.4 1 9.4.8 14.2-.3 6.2-2.3 14-2.3 14s-2-7.8-2.3-14c-.2-4.8 1-10.7.8-14.2-3.4 10.6-10 12.7-10.2 20.7-.2 8.1 11.7 15.4 11.7 15.4s11.9-7.3 11.7-15.4c-.2-8-6.8-10-10.2-20.7z"/><path class="st1" d="M224.8 198.4c5.3 6.4 14.5 3.5 14.5 3.5-6.4-10.3-6.7-23.3-6.7-23.3 2.1 10.9 7.8 19.5 7.8 19.5 5.7 5.3 26.8 1.3 26.8 1.3-13.3-11.7-19.7-26.4-19.7-26.4 6.4 9.2 19.1 16.6 19.1 16.6 16.6 3.5 38.5-8.6 38.5-8.6-21.3-10.3-37.1-29-37.1-29 22.3 15.5 43.7 18.1 43.7 18.1 22.7-1.8 39.6-24.1 39.6-24.1-44.4-3.2-63.3-11.5-63.3-11.5 13.1 4.3 60.5 1.6 60.5 1.6 17.7-7.4 26.6-32.8 26.6-32.8-32.9 6.7-71.2 4.5-71.2 4.5 33.2-.8 66.1-15 66.1-15 17.7-13.3 22.3-45 22.3-45-45.9 30.9-115.3 44-131.2 46.7-2 .3-3.5 1.8-4 3.8-5.4 24.2-21.4 34.3-35.5 38.4-15.2 3.5-11.7-24.8-6.5-26.3 6.2-1.5 9.3.7 15 4-2.7-14.6-16.7-15.9-16.7-15.9-4-7-15.7-12.1-24.2-11.7-7.9.4-23.7-5.9-27.1-10.1 4 10.2 14.1 14.8 23.1 21.5 8 27.8-1.1 41.1-11.5 38.6-14.2-3.8-30.7-13.8-36.2-38.4-.4-2-2-3.5-4-3.8-15.9-2.7-85.3-15.8-131.1-46.7 0 0 4.6 31.6 22.3 45 0 0 26.5 14.2 59.8 14.9 0 0-31.9 2.2-64.8-4.5 0 0 8.9 25.4 26.6 32.8 0 0 46.1 2.7 59.2-1.6 0 0-17.6 8.3-62 11.5 0 0 16.9 22.3 39.6 24.1 0 0 21.4-2.6 43.7-18.1 0 0-15.8 18.7-37.1 28.9 0 0 21.8 12.2 38.5 8.6 0 0 12.8-7.4 19.1-16.6 0 0-6.4 14.8-19.7 26.4 0 0 21.1 4 26.8-1.3 0 0 5.7-8.6 7.8-19.5 0 0-.4 13-6.7 23.3 0 0 9.2 2.9 14.5-3.5 0 0 7.3 14.5 25.3 16.6 17.1.1 29.5-16.5 29.5-16.5zm-57 19.7"/><path class="st0" d="M196.8 69.1c-1.1-.6-6.9-3.8-12.7-9.7-5.9-5.9-12.8-15.8-12.8-29.2v-26h52.1v26c0 13-7 22.9-12.9 28.9-5.8 6-11.7 9.3-12.8 10l-.5.3-.4-.3z"/><path class="st0" d="M222.4 5.3v25c0 12.7-6.9 22.3-12.6 28.2-5.8 5.9-11.7 9.3-12.5 9.8-.9-.5-6.7-3.7-12.4-9.5s-12.5-15.4-12.5-28.5v-25h50m2-2h-54.1v27c0 13.7 7.1 23.8 13.1 29.9 5.9 6 11.8 9.3 12.9 9.9l1 .5 1-.5c1.1-.6 7.1-4.1 13-10.1 6-6.1 13.2-16.3 13.2-29.6V3.3h-.1z"/><path class="st2" d="M217.8 17.3l-4.4-1.1v-1.3h-.9v1.3h-30.9c.1-1.4 1.3-3 3.9-4.6 0 0-5.1-3.4-10.2.1 0 0 3.3 1.7 3.3 4.5-1 .1-2.9.3-2.9 1.1s1.8 1.1 2.9 1.2c-.1 2.8-3.3 4.5-3.3 4.5 5.1 3.5 10.2.1 10.2.1-2.6-1.6-3.7-3.2-3.9-4.5h30.9V20h.9v-1.4l4.4-1.3z"/><path class="st2" d="M208.2 8s0 3.2-3.2 3.2c0 0 3.2 0 3.2 3.1 0 0 0-3.1 3.2-3.1 0-.1-3.2-.1-3.2-3.2zm9.6-.1s0 3.2-3.2 3.2c0 0 3.2 0 3.2 3.1 0 0 0-3.1 3.2-3.1-.1 0-3.2 0-3.2-3.2zm0 12.7s0 3.2-3.2 3.2c0 0 3.2 0 3.2 3.1 0 0 0-3.1 3.2-3.1 0 0-3.2 0-3.2-3.2zm-9.5 0s0 3.2-3.2 3.2c0 0 3.2 0 3.2 3.1 0 0 0-3.1 3.2-3.1-.1 0-3.2 0-3.2-3.2zm4.7 14l-6.3 6.2-9.3-13.7-9.4 13.6-6.3-6.3-7.3 7.9s4.2 15.4 22.9 26c18.4-10.8 23-25.8 23-25.8l-7.3-7.9zm-11.2 15.6c-.8 0-1.8.4-1.8 1.6 0 1.3.8 1.8 2.8 2.6v1.4h-2.5s-1-1-3-1-3.1 1-3.1 1h-2.4v-1.4c2.2-1 2.9-1.3 2.9-3.2 0-1.7-1.1-3.5-5.3-3.8l-.1-.7h-.1v-.6h11.7v.2c0 .2.3.2.5.2h.6c.1 0 .1 0 .1.1v.1h3c1.3 0 2.9-.1 2.9-.1.1 0 .1 0 .1.1-.1.6-1.6 3.5-6.3 3.5z"/><path class="st3" d="M197.3 68.3c.9-.5 6.7-3.9 12.5-9.8s12.6-15.5 12.6-28.2v-25h-50.1v25c0 13 6.8 22.7 12.5 28.5 5.8 5.8 11.6 9 12.5 9.5z"/><path class="st0" d="M195.2 216.5c-15.1 0-22.9-9.3-25.4-15.3-1.5-3.8-1.5-10.1 1-14.8 3-5.5 10.3-16.6 1.8-21.8 4.7 1.2 6.4 5.2 5.7 10.1-.8 5.6-4.5 11.5-1.5 17 2.7 5 9.7 5.3 11.5-.7 1.4-4.8-2-10.6-6.9-10.6 3.5-1.5 7.7-.3 10.7 1.8 2.7 1.9 5.5 5.2 4.9 8.9 2.3-6.5-6.7-10.6-10.2-14-5-4.2-7.4-11.1-6.7-15.3 1-5.6 3.6-10.3 8.3-13.1-1.9 2.1-3.3 7.3-.9 10.2-.9-11.8 9.3-19.1 17.8-20.4-9.8 4.2-14.3 19-7.2 28.6 3.1 4.2 8.8 7.4 12.4 10.9 9.8 9.6 6.5 18.2 2.6 23.2 10.3-8.8 2.4-21.2-1.7-26.3-2.2-2.9-4.6-5.5-4.2-9.5.3-3.3 2-6.2 5.1-7.3-5.8 3.5 1.2 11.5 3.8 14.4 4.7 5.2 8.5 9.1 9.6 16.6 1.4 9.9-6.3 26.8-28.2 27.3h-2.3z"/><path class="st4" d="M69.7 249.9c-2.3 1.3-7 3.3-13.5 3.3-9.6 0-14.7-8-38-2.8 0 0 15.2 0 22.7 6.9 8 7.4 11.7 8.5 11.7 8.5s-4.2 1.7-10.6 2c-6.4.3-20.4 3.4-23.5 17.6 0 0 10.4-7.1 21-7.1s9.9 5.4 22.2 5.4c12.3 0 28.5-5.7 28.5-11.3 0-5.6-9.9-3.2-20.6 1.6 0 0-5.3 2.8-5.3-2.3 0-4 7.1-4.6 7.1-15.6 0-2-1-4.4-1.7-6.2z"/><path class="st4" d="M90.8 266.3c-8.3.8-13.2 1.5-15.2 1.7-6.2.8-9.4 1.8-9.4 4.3s3.3 1.7 3.3 1.7c10.7-4.9 20.6-7.2 20.6-1.6 0 0 1.1-1.6 1.1-3.5.1-1.8-.4-2.6-.4-2.6z"/><path class="st4" d="M197.3 262.2c56.5 0 88.4 2.4 106.5 4.1 8.3.8 13.2 1.5 15.2 1.7 6.2.8 9.4 1.8 9.4 4.3s-3.3 1.7-3.3 1.7 5.3 2.8 5.3-2.3c0-4-7.1-4.6-7.1-15.6 0-2.1.8-4.5 1.5-6.2 1.7-4.2 4.3-6.8 4.3-9 0-9.8-50.6-10.6-131.8-10.6-81.2 0-131.8.8-131.8 10.6 0 2.2 2.6 4.9 4.3 9 .7 1.7 1.5 4.1 1.5 6.2 0 11-7.1 11.6-7.1 15.6 0 5.1 5.3 2.3 5.3 2.3s-3.3.8-3.3-1.7 3.2-3.5 9.4-4.3c2-.3 6.8-.9 15.2-1.7 18.1-1.7 50.1-4.1 106.5-4.1z"/><path class="st4" d="M325 249.9c2.3 1.3 7 3.3 13.5 3.3 9.6 0 14.7-8 38-2.8 0 0-15.2 0-22.7 6.9-8 7.4-11.7 8.5-11.7 8.5s4.2 1.7 10.6 2c6.4.3 20.4 3.4 23.5 17.6 0 0-10.4-7.1-21-7.1s-9.9 5.4-22.2 5.4c-12.3 0-28.5-5.7-28.5-11.3 0-5.6 9.9-3.2 20.6 1.6 0 0 5.3 2.8 5.3-2.3 0-4-7.1-4.6-7.1-15.6 0-2 1-4.4 1.7-6.2z"/><path class="st4" d="M303.9 266.3c8.3.8 13.2 1.5 15.2 1.7 6.2.8 9.4 1.8 9.4 4.3s-3.3 1.7-3.3 1.7c-10.7-4.9-20.6-7.2-20.6-1.6 0 0-1.1-1.6-1.1-3.5-.1-1.8.4-2.6.4-2.6z"/><path class="st0" d="M92.4 254.3c.4.7 1 1 1.5.9h.1v.2c-2.1.1-3.2.2-5.3.4v-.2h.1c.4 0 .9-.5.6-1.2-.4-.9-.6-1.3-1-2.1-1.6.1-2.3.2-3.9.3-.3.9-.4 1.4-.7 2.3-.2.7.3 1.1.7 1.1h.1v.2c-1.4.1-2.1.2-3.6.3v-.2h.1c.5 0 1-.4 1.3-1.1 1.2-3.8 1.9-5.8 3.1-9.6.1-.3.6-1.9.6-2.4h.2c2.6 4.3 3.7 6.6 6.1 11.1zm-4.3-2.8c-.8-1.7-1.2-2.6-2-4.3-.6 1.8-.8 2.7-1.4 4.5 1.4 0 2.1-.1 3.4-.2zm14.7 3.3c-3.4.2-5.2.3-8.6.6v-.2h.2c.6 0 1-.6 1-1.2-.3-4-.4-5.9-.7-9.9-.1-.6-.6-1.1-1.1-1h-.2v-.2c2-.1 3.1-.2 5.1-.3v.2h-.2c-.6 0-1 .6-1 1.2.3 4.2.4 6.3.7 10.4.9-.1 1.3-.1 2.2-.1 1.7-.1 2.7-1.3 3.1-3.1h.2c-.4 1.4-.5 2.1-.7 3.6zm10.1-.6c-3.4.2-5.2.3-8.6.5v-.2h.2c.6 0 1-.6 1-1.2-.2-4-.4-5.9-.6-9.9 0-.6-.6-1.1-1.1-1.1h-.2v-.2c2-.1 3.1-.2 5.1-.3v.2h-.2c-.6 0-1 .6-1 1.2.3 4.2.4 6.3.6 10.4.9-.1 1.3-.1 2.2-.1 1.7-.1 2.7-1.3 3.1-3.1h.2c-.3 1.6-.4 2.3-.7 3.8zm11-13.1c2-.1 4 .7 4.1 3.2.1 1.5-.7 3.2-2.6 3.5.7.2 1.4.9 1.8 1.5.1.1 1.1 1.7 1.8 2.5.8.9 1.3 1.3 2.1 1.3v.2c-.6 0-1 0-1.6.1-1.8.1-3.2-.3-4-1.7-.4-.7-1.3-2.5-1.5-3-.4-.7-.8-1.1-1.2-1.1v-.2h.5c.9-.1 1.8-.6 2-2.2 0-.2.1-.5 0-.9-.1-1.7-1-2.4-2.1-2.4-.4 0-1.1.1-1.3.1.2 4.2.3 6.2.5 10.4 0 .6.5 1.1 1.1 1.1h.2v.2c-2 .1-3 .2-5.1.3v-.2h.2c.6 0 1-.6 1-1.2-.2-4-.3-5.9-.5-9.9 0-.6-.5-1.1-1.1-1.1h-.2v-.2c2.4-.2 3.6-.2 5.9-.3zm19.7 5.4c.1 4-2.3 6.6-6.3 6.8-4 .2-6.7-2.2-6.8-6.2-.2-4 2.3-6.6 6.3-6.8 4-.2 6.7 2.2 6.8 6.2zm-2.7.1c-.1-3.5-1.7-5.7-4.1-5.6-2.4.1-3.7 2.4-3.6 5.9.2 3.5 1.7 5.7 4.1 5.6 2.3-.1 3.7-2.4 3.6-5.9zm13.9 4.5c.4.7 1 1 1.5 1h.1v.2c-2.1.1-3.2.1-5.3.2v-.2h.1c.4 0 .9-.4.6-1.1-.4-.9-.5-1.3-.9-2.2-1.6 0-2.3.1-3.9.1-.3.9-.5 1.3-.8 2.2-.2.7.2 1.1.7 1.1h.1v.2c-1.4 0-2.1.1-3.6.1v-.2h.1c.5 0 1-.3 1.4-1.1l3.5-9.5c.1-.3.7-1.8.7-2.4h.2c2.4 4.7 3.4 7 5.5 11.6zm-4.1-2.9c-.7-1.7-1.1-2.6-1.8-4.3-.6 1.8-.9 2.7-1.6 4.4 1.4 0 2 0 3.4-.1zm11.7-8.6c4-.1 6.5 2.3 6.6 6.1.1 3.9-2.3 6.3-6.3 6.4-2.4.1-3.6.1-6 .2v-.2h.2c.6 0 1-.5 1-1.1-.1-4-.2-6-.3-10 0-.6-.5-1-1.1-1h-.2v-.2c2.4-.1 3.6-.1 6.1-.2zm-2 11.8c.8 0 1.2 0 2.1-.1 2.4-.1 3.8-2.2 3.8-5.6-.1-3.4-1.6-5.5-4-5.4-.8 0-1.2 0-2.1.1 0 4.5.1 6.6.2 11zm16.6-5.9c1 .7 1.6 1.6 1.5 2.9-.1 2.3-1.7 3.7-4.3 3.8-1.5 0-3.1-.4-3.5-1-.3-.5-.1-2.3.3-3h.1c-.1 1.9 1.2 3.4 3.2 3.3 1.4-.1 2.3-.9 2.3-2 0-.7-.5-1.2-1.4-1.8-1.2-.8-1.8-1.2-2.9-2-1.2-.8-1.7-1.9-1.7-3.2.1-1.8 1.4-3.2 3.5-3.2.5 0 1.5.1 2.3.1h1.1c-.1 1.1-.1 1.6-.2 2.6h-.2c0-1.2-1-2-2.4-2-1.3 0-2.1.8-2.2 1.8 0 .7.5 1.2 1.2 1.6 1.3.8 2 1.2 3.3 2.1zm15.8 6.2c-3.4 0-5.2 0-8.6.1v-.2h.2c.6 0 1.1-.5 1.1-1.1 0-4-.1-5.9-.1-9.9 0-.6-.5-1.1-1.1-1.1h-.2v-.2h5.1v.2h-.2c-.6 0-1.1.5-1.1 1.1 0 4.2 0 6.3.1 10.4h2.2c1.7 0 2.7-1.1 3.2-2.9h.2c-.3 1.4-.5 2.2-.8 3.6zm10.2 0h-8.6v-.2h.2c.6 0 1.1-.5 1.1-1.1v-10c0-.6-.5-1.1-1.1-1.1h-.2v-.2h6.4c.7 0 1.7-.2 2-.3v3.1h-.2v-.2c0-1.1-.6-1.8-1.6-1.8h-2.8v5.2h2.2c.8 0 1.4-.7 1.4-1.5v-.2h.2v4.1h-.2v-.2c0-.9-.6-1.5-1.4-1.5h-2.2v5h2.2c1.7 0 2.7-1.1 3.3-2.9h.2c-.5 1.6-.6 2.4-.9 3.8zm12-1.1c.4.7.9 1 1.4 1.1h.1v.2c-2.1 0-3.2 0-5.3-.1v-.2h.1c.4 0 .9-.4.7-1.1-.3-.9-.5-1.3-.8-2.2h-3.9c-.3.9-.5 1.3-.9 2.2-.3.7.2 1.1.6 1.1h.1v.2h-3.6v-.2h.1c.5 0 1-.3 1.4-1 1.6-3.7 2.3-5.6 3.9-9.3.1-.3.8-1.8.8-2.3h.2c2.2 4.6 3.2 6.9 5.1 11.6zm-4-3.1c-.6-1.8-1-2.6-1.6-4.4-.7 1.7-1 2.6-1.7 4.4h3.3zm12-8.1c4 .1 6.4 2.5 6.3 6.4-.1 3.9-2.6 6.2-6.5 6.1-2.4 0-3.6-.1-6-.1v-.2h.2c.6 0 1.1-.5 1.1-1.1.1-4 .1-6 .1-10 0-.6-.5-1-1.1-1h-.2v-.2c2.4.1 3.7.1 6.1.1zm-2.5 11.7h2.1c2.4 0 3.9-2 4-5.4.1-3.4-1.4-5.5-3.8-5.6h-2.1c-.1 4.4-.1 6.6-.2 11zm24.7-8.4h-.2v-.2c0-1.1-.6-1.8-1.6-1.9-.9 0-1.4 0-2.3-.1-.1 4.2-.2 6.3-.3 10.5 0 .6.5 1.1 1 1.1h.2v.2c-2-.1-3-.1-5.1-.1v-.2h.2c.6 0 1.1-.5 1.1-1.1.1-4.2.2-6.3.3-10.5-.9 0-1.4 0-2.3-.1-1 0-1.7.7-1.7 1.8v.2h-.2c0-1.2 0-1.9.1-3.1.3.1 1.3.3 2 .4 2.7.1 4 .1 6.7.2.7 0 1.7-.1 2-.3.1 1.3.1 2 .1 3.2zm13.9 4c-.2 4-2.8 6.4-6.8 6.2-4-.1-6.5-2.7-6.3-6.7.1-4 2.8-6.4 6.8-6.3 3.9.2 6.4 2.8 6.3 6.8zm-2.8-.1c.1-3.5-1.3-5.8-3.6-5.9-2.4-.1-3.9 2.1-4 5.6-.1 3.5 1.3 5.8 3.6 5.9 2.3.1 3.9-2.1 4-5.6zm14.4-5.6c2 .1 3.9 1.1 3.8 3.6-.1 1.5-1 3.1-2.9 3.3.7.3 1.3 1 1.6 1.7 0 .1 1 1.8 1.5 2.7.7 1 1.1 1.4 2 1.5v.2c-.6 0-1-.1-1.6-.1-1.8-.1-3.1-.6-3.8-2-.4-.8-1-2.6-1.2-3.1-.3-.8-.6-1.2-1.1-1.3v-.2h.5c.9 0 1.8-.4 2.2-2 0-.2.1-.5.1-.9 0-1.7-.8-2.5-1.9-2.6-.4 0-1.1-.1-1.3-.1-.2 4.2-.3 6.2-.5 10.4 0 .6.4 1.1 1 1.2h.2v.2c-2-.1-3-.1-5.1-.2v-.2h.2c.6 0 1.1-.4 1.1-1.1.2-4 .3-5.9.4-9.9 0-.6-.4-1.1-1-1.2h-.2v-.2c2.6.1 3.7.1 6 .3z"/><path class="st0" d="M286.8 253.1c.3.8.9 1.1 1.4 1.1h.1v.2c-2.1-.1-3.2-.2-5.3-.3v-.2h.1c.4 0 .9-.4.7-1.1-.3-.9-.4-1.4-.7-2.3-1.6-.1-2.3-.1-3.9-.2-.4.9-.6 1.3-1 2.2-.3.7.1 1.1.6 1.2h.1v.2c-1.4-.1-2.1-.1-3.6-.2v-.2h.1c.5 0 1.1-.2 1.5-.9 1.7-3.6 2.6-5.5 4.4-9.1.1-.3.9-1.8 1-2.3h.2c1.7 4.8 2.6 7.2 4.3 11.9zm-3.9-3.3c-.6-1.8-.8-2.7-1.4-4.5-.8 1.7-1.2 2.6-2 4.3 1.4.1 2.1.2 3.4.2zm9.4 3.6c0 .6.4 1.2 1 1.2h.2v.2c-2-.1-3-.2-5-.3v-.2h.2c.6 0 1.1-.4 1.1-1.1.2-4 .4-5.9.6-9.9 0-.6-.4-1.1-1-1.2h-.2v-.2c2 .1 3.1.2 5.1.3v.2h-.2c-.6 0-1.1.4-1.1 1-.3 4-.4 6-.7 10zm6.8.4c.5.8.9 1.2 1.6 1.2v.2c-.5 0-.8-.1-1.4-.1-.5 0-2.5-.1-3.5-1.7-.3-.5-2.7-4.6-2.7-4.6 1.7-2.1 2.6-3.2 4.3-5.3.3-.4.1-.8-.3-.9h-.2v-.2c1.5.1 2.3.2 3.8.3v.2h-.1c-.7 0-1.4.2-1.9.7-1.4 1.6-2.1 2.3-3.5 3.9 1.6 2.5 2.4 3.8 3.9 6.3zm7 1.8c-2-.1-3-.2-5-.4v-.2h.2c.6 0 1.1-.4 1.1-1 .3-4 .4-5.9.7-9.9 0-.6-.4-1.1-1-1.2h-.2v-.2c2 .1 3.1.2 5.1.4v.2h-.2c-.6 0-1.1.4-1.2 1-.3 4-.4 5.9-.7 9.9 0 .6.4 1.2 1 1.2h.2v.2zm8.5-5.8c.9.8 1.4 1.8 1.3 3.1-.3 2.3-2 3.5-4.7 3.3-1.5-.1-3.1-.7-3.4-1.3-.3-.6.1-2.3.6-3h.1c-.3 1.8.9 3.5 2.9 3.6 1.4.1 2.4-.7 2.5-1.8.1-.7-.3-1.2-1.2-1.9-1.1-.9-1.6-1.4-2.7-2.3-1.1-.9-1.6-2-1.4-3.3.3-1.8 1.6-3 3.8-2.9.5 0 1.5.2 2.3.4.4 0 .6 0 1.1.1-.2 1-.3 1.6-.4 2.6h-.2c.1-1.2-.8-2.1-2.2-2.2-1.3-.1-2.2.6-2.3 1.5-.1.7.4 1.2 1 1.7 1.1.9 1.7 1.4 2.9 2.4zM200.3 96.3c-2.1-.6-5.1-3.9-5.1-3.9s3.1.1 5.9.9c2.9.8 4.8 4.2 4.8 4.2s-3.5-.6-5.6-1.2z"/></svg>